Coordinates
version=1
nRows=27
nColumns=12
inDegrees=yes

Units are S.I. units (second, meters, Newtons, ...)
Angles are in degrees

endheader
time	SC_y	SC_z	SC_x	AC_y	AC_z	AC_x	GH_y	GH_z	GH_yy	EL_x	PS_y
       0.0              -41.33          25.88           38.8          35.83         -10.64          12.53         -23.47         -12.25         -74.37          8.179          47.33
   0.04563              -41.32          25.88           38.8          35.83         -10.64          12.52         -23.49         -12.24         -74.37          8.197          47.33
   0.09125              -41.32          25.87           38.8          35.83         -10.63          12.52         -23.52         -12.23         -74.37          8.216          47.33
    0.1369              -41.32          25.87           38.8          35.82         -10.63          12.52         -23.54         -12.21         -74.37          8.237          47.33
    0.1825              -41.31          25.86           38.8          35.82         -10.63          12.51         -23.57          -12.2         -74.37          8.259          47.33
    0.2281              -41.31          25.86           38.8          35.82         -10.63          12.51          -23.6         -12.19         -74.37          8.282          47.33
    0.2738               -41.3          25.85           38.8          35.82         -10.63           12.5         -23.62         -12.17         -74.37          8.307          47.33
    0.3194               -41.3          25.84           38.8          35.82         -10.63           12.5         -23.66         -12.16         -74.37          8.333          47.34
     0.365              -41.29          25.84           38.8          35.82         -10.63          12.49         -23.69         -12.14         -74.38          8.362          47.34
    0.4106              -41.29          25.83           38.8          35.82         -10.63          12.48         -23.73         -12.12         -74.38          8.392          47.34
    0.4563              -41.28          25.82           38.8          35.82         -10.63          12.48         -23.77          -12.1         -74.38          8.425          47.34
    0.5019              -41.27          25.82           38.8          35.82         -10.63          12.47         -23.81         -12.08         -74.38           8.46          47.34
    0.5475              -41.27          25.81          38.79          35.82         -10.62          12.46         -23.85         -12.06         -74.38          8.498          47.34
    0.5931              -41.26           25.8          38.79          35.82         -10.62          12.46          -23.9         -12.04         -74.38          8.539          47.35
    0.6388              -41.25          25.79          38.79          35.81         -10.62          12.45         -23.95         -12.01         -74.38          8.583          47.35
    0.6844              -41.24          25.78          38.79          35.81         -10.62          12.44         -24.01         -11.98         -74.38          8.632          47.35
      0.73              -41.23          25.77          38.79          35.81         -10.62          12.43         -24.07         -11.95         -74.38          8.684          47.35
    0.7756              -41.22          25.75          38.79          35.81         -10.61          12.41         -24.14         -11.92         -74.38          8.741          47.36
    0.8213              -41.21          25.74          38.79          35.81         -10.61           12.4         -24.21         -11.88         -74.38          8.803          47.36
    0.8669               -41.2          25.72          38.79          35.81         -10.61          12.39          -24.3         -11.84         -74.38          8.871          47.36
    0.9125              -41.18          25.71          38.78           35.8         -10.61          12.37         -24.38          -11.8         -74.38          8.946          47.36
    0.9581              -41.17          25.69          38.78           35.8          -10.6          12.36         -24.48         -11.75         -74.39          9.028          47.37
     1.004              -41.15          25.67          38.78           35.8          -10.6          12.34         -24.59          -11.7         -74.39          9.119          47.37
     1.049              -41.13          25.65          38.78           35.8          -10.6          12.32         -24.71         -11.64         -74.39           9.22          47.38
     1.095              -41.11          25.62          38.77          35.79         -10.59           12.3         -24.84         -11.57         -74.39          9.332          47.38
     1.141              -41.08          25.59          38.77          35.79         -10.59          12.27         -24.99          -11.5         -74.39          9.457          47.39
     1.186              -41.06          25.56          38.77          35.78         -10.58          12.24         -25.16         -11.42         -74.39          9.597          47.39
